<svg version="1.1" id="Layer_1" xmlns="http://www.w3.org/2000/svg" xmlns:xlink="http://www.w3.org/1999/xlink" x="0px" y="0px"
	 width="100%" viewBox="0 0 736 544" enable-background="new 0 0 736 544" xml:space="preserve">
<path fill="#ffffff" opacity="1.000000" stroke="none" 
	d="
M289.977600,332.132080 
	C275.702484,337.354950 261.513947,341.710602 248.123047,348.131989 
	C244.862320,349.695587 243.145340,349.013489 242.697205,345.291504 
	C241.544113,335.714600 240.786621,326.055908 238.981873,316.599640 
	C236.256287,302.318298 230.399277,288.964020 225.337051,275.409271 
	C213.925171,244.852509 208.911346,213.399155 211.816254,180.851456 
	C212.644196,171.574814 214.533798,162.431595 218.196869,153.751999 
	C221.334885,146.316467 226.066620,140.368439 233.116837,136.192963 
	C244.409058,129.505188 256.319122,124.654594 269.353333,122.632393 
	C274.421478,121.846100 279.411804,120.591820 283.578583,117.134827 
	C275.187653,118.508629 267.096588,121.393082 258.528198,121.780495 
	C255.522263,121.916412 251.606766,122.941681 250.433884,119.993591 
	C249.102509,116.647079 252.637741,114.355263 255.353241,112.837715 
	C263.582733,108.238670 272.104431,106.900108 281.179626,110.704224 
	C289.099030,114.023849 297.239746,114.992523 306.026520,114.179688 
	C366.069977,108.625244 416.809082,127.508827 457.147491,172.898376 
	C477.664703,195.984741 491.249329,223.247177 504.057037,250.965424 
	C509.225403,262.150726 514.056519,273.483276 517.862427,285.217041 
	C518.656799,287.666199 519.918396,290.154968 518.908569,292.942383 
	C515.917297,293.861664 513.546204,292.360077 511.227997,291.278961 
	C491.558868,282.105927 470.967438,282.003296 450.052460,284.860138 
	C417.192169,289.348633 386.243958,300.902924 354.856812,310.778992 
	C333.265961,317.572601 311.846863,324.912079 289.977600,332.132080 
z"/>
<path fill="#ffffff" opacity="1.000000" stroke="none" 
	d="
M259.711426,404.332306 
	C245.286743,393.782745 231.166458,383.424530 216.453766,372.631744 
	C216.752396,369.938782 219.845337,368.570190 222.345840,366.946411 
	C241.443237,354.545166 262.009155,345.128906 283.411865,337.526642 
	C321.065857,324.151855 358.833282,311.096985 397.164337,299.770660 
	C419.684906,293.116150 442.479675,287.217133 465.947327,285.519836 
	C484.727997,284.161530 503.144073,288.013428 519.027039,298.227814 
	C540.101440,311.780701 562.642334,322.545563 584.312195,334.934235 
	C598.332031,342.949371 613.054260,349.720184 626.533691,358.696899 
	C632.096558,362.401520 637.406189,366.420074 641.534119,371.762726 
	C643.025757,373.693390 644.724060,375.588318 644.670654,378.520111 
	C642.592651,378.907471 641.684570,377.254791 640.512451,376.307281 
	C624.490295,363.355591 606.843323,353.698425 586.553955,349.209503 
	C567.534851,345.001556 549.122742,348.413330 530.981079,353.791931 
	C504.280792,361.708038 480.793610,375.874207 458.525787,392.231232 
	C440.687164,405.334747 423.896332,419.854980 404.736664,431.171417 
	C387.187683,441.536621 368.627686,447.393585 348.072418,445.289215 
	C329.100952,443.346954 311.287567,437.697662 294.921539,427.818878 
	C282.937347,420.585052 271.507812,412.503723 259.711426,404.332306 
z"/>
<path fill="#ffffff" opacity="1.000000" stroke="none" 
	d="
M153.077240,181.082153 
	C176.372284,154.989014 204.719818,137.642029 237.967117,127.368767 
	C237.903564,129.536697 236.647049,129.893967 235.672516,130.390411 
	C219.691208,138.531845 212.958557,152.796967 210.407227,169.462463 
	C204.713181,206.656158 208.735779,242.719315 222.957245,277.730621 
	C229.969040,294.992706 235.948212,312.688599 239.670319,331.032227 
	C240.232056,333.800568 240.720337,336.604187 240.949524,339.415405 
	C241.440369,345.436127 240.018341,350.217041 234.101852,353.642822 
	C228.090652,357.123535 222.673340,361.699982 217.251923,366.111145 
	C210.713013,371.431458 203.563950,375.141144 195.463760,377.749054 
	C167.100204,386.881012 138.916595,396.571259 110.652176,406.012085 
	C100.433327,409.425354 96.992401,407.544891 94.615471,397.091431 
	C91.095253,381.610016 92.355591,365.872253 93.090729,350.294098 
	C93.959770,331.878540 96.003059,313.511597 99.641777,295.371918 
	C108.132935,253.042068 123.746429,214.054504 153.077240,181.082153 
z"/>
<path fill="#ffffff" opacity="1.000000" stroke="none" 
	d="
M634.392822,405.230042 
	C625.774231,412.959290 616.096802,412.160797 606.326721,409.653320 
	C594.260437,406.556549 584.499634,399.226196 574.841797,391.790741 
	C564.564209,383.878143 555.038452,374.963959 543.527344,368.695160 
	C539.710632,366.616669 535.507812,365.589478 531.686096,363.954834 
	C531.405579,362.323303 532.439148,361.978088 533.350159,361.686615 
	C560.246948,353.078827 586.978210,351.482910 612.847717,364.941345 
	C623.491089,370.478394 632.579407,378.102020 636.448120,390.211975 
	C638.082703,395.328766 638.094177,400.379089 634.392822,405.230042 
z"/>
</svg>